<?xml version="1.0" standalone="no"?>
<!DOCTYPE svg PUBLIC "-//W3C//DTD SVG 20010904//EN"
 "http://www.w3.org/TR/2001/REC-SVG-20010904/DTD/svg10.dtd">
<svg version="1.0" xmlns="http://www.w3.org/2000/svg"
 width="1877.000000pt" height="1877.000000pt" viewBox="0 0 1877.000000 1877.000000"
 preserveAspectRatio="xMidYMid meet">
<metadata>
Created by potrace 1.14, written by Peter Selinger 2001-2017
</metadata>
<g transform="translate(0.000000,1877.000000) scale(0.100000,-0.100000)"
fill="#000000" stroke="none">
<path d="M4269 13413 c5 -10 23 -31 40 -47 29 -28 43 -54 21 -41 -13 8 -255 8
-335 0 -58 -5 -189 -23 -230 -31 -61 -12 -180 -15 -795 -19 -371 -3 -724 -7
-785 -9 -60 -3 -200 -8 -310 -11 -110 -3 -238 -8 -285 -10 -47 -2 -164 -6
-260 -9 -96 -3 -233 -8 -305 -12 -71 -3 -173 -7 -225 -9 -493 -19 -518 -20
-525 -27 -3 -2 77 -85 178 -184 180 -177 246 -227 380 -290 20 -10 37 -20 37
-23 -1 -3 -37 -30 -80 -60 -94 -62 -210 -168 -268 -243 -36 -48 -97 -151 -207
-353 -60 -111 -87 -161 -172 -315 -113 -205 -107 -194 -91 -184 11 6 52 39
168 131 118 95 187 143 204 144 12 0 28 2 36 3 8 2 42 6 75 10 78 10 110 14
165 20 25 3 72 9 104 12 33 3 69 8 80 10 35 8 266 17 266 11 0 -8 -37 -74 -56
-102 -20 -28 -18 -31 23 -48 21 -9 75 -31 121 -51 150 -63 313 -107 507 -138
84 -14 93 -20 90 -58 -1 -17 -2 -30 -1 -30 6 -1 353 -73 426 -90 52 -11 133
-29 180 -40 85 -18 275 -61 380 -85 30 -7 100 -25 155 -40 55 -15 123 -33 150
-40 208 -54 413 -125 563 -197 68 -32 125 -58 127 -58 3 0 33 -14 67 -31 193
-95 350 -131 566 -132 l94 0 -7 -34 c-3 -19 -9 -41 -12 -49 -3 -9 2 -14 16
-14 15 0 21 -5 19 -17 -2 -14 4 -17 37 -16 22 0 81 2 132 3 58 2 111 9 145 21
97 34 162 48 258 54 52 4 111 8 130 10 95 11 253 13 274 5 13 -5 43 -12 65
-15 97 -14 182 -44 281 -97 103 -55 111 -62 242 -204 24 -26 30 -42 33 -95 21
-302 115 -777 222 -1114 31 -100 101 -300 118 -340 7 -16 25 -61 41 -100 54
-137 203 -445 225 -470 5 -5 9 -16 9 -26 0 -13 -12 -16 -62 -18 -33 -1 -64 -3
-67 -5 -3 -2 -37 -7 -76 -10 -38 -4 -81 -9 -95 -11 -14 -2 -50 -6 -80 -10 -81
-9 -156 -18 -250 -30 -25 -3 -74 -10 -110 -15 -36 -5 -119 -16 -185 -25 -133
-18 -168 -23 -205 -30 -14 -2 -45 -7 -70 -10 -25 -3 -56 -8 -70 -10 -14 -3
-40 -7 -57 -10 -47 -7 -91 -14 -153 -25 -30 -5 -73 -12 -95 -15 -22 -3 -65
-10 -95 -15 -68 -13 -99 -18 -175 -31 -153 -26 -697 -132 -765 -149 -19 -5
-46 -11 -60 -14 -14 -2 -41 -7 -61 -11 -25 -5 -97 -56 -255 -181 -120 -96
-230 -184 -244 -195 -14 -11 -78 -61 -142 -112 l-117 -92 -97 -250 c-53 -137
-118 -306 -144 -375 -27 -69 -107 -278 -180 -465 -149 -385 -143 -366 -133
-381 6 -8 336 -240 463 -326 14 -9 66 -45 115 -79 109 -76 105 -76 340 -25
141 31 327 68 455 92 14 3 81 15 150 28 69 14 145 28 170 31 59 10 59 9 248
146 190 138 184 135 242 143 25 3 56 8 70 11 54 9 217 34 260 40 25 3 52 7 60
9 8 3 42 7 75 11 33 3 69 8 80 10 11 3 36 7 55 9 201 27 272 37 310 41 25 3
63 8 85 10 63 9 115 15 245 30 30 4 66 8 80 10 28 4 135 15 189 20 83 7 168
16 201 20 44 5 115 12 260 25 119 11 165 15 310 25 91 6 136 10 270 21 47 3
110 8 140 9 30 2 111 6 180 9 69 4 154 9 190 11 76 5 348 16 505 20 247 7 328
7 334 -2 3 -4 31 -28 61 -53 30 -25 60 -49 67 -55 7 -5 18 -15 25 -21 185
-152 502 -352 537 -339 59 23 439 265 624 399 68 48 107 70 125 69 15 0 108
-4 207 -8 99 -4 203 -9 230 -10 200 -10 310 -16 375 -21 100 -7 177 -12 285
-19 50 -3 108 -7 130 -10 22 -2 76 -7 120 -10 44 -3 98 -8 120 -10 22 -2 94
-9 160 -15 138 -12 202 -18 265 -25 25 -2 70 -7 100 -10 30 -3 71 -8 90 -10
19 -3 55 -7 80 -10 125 -13 390 -44 430 -50 14 -2 77 -11 140 -19 133 -18 264
-36 300 -41 14 -2 43 -6 65 -10 23 -3 51 -7 64 -10 13 -2 49 -7 80 -11 31 -3
59 -8 62 -10 3 -2 25 -6 49 -9 23 -3 54 -7 69 -10 14 -2 45 -7 69 -10 24 -3
53 -10 65 -17 26 -13 303 -213 332 -239 19 -17 38 -23 115 -35 19 -3 42 -7 50
-9 8 -3 56 -11 105 -20 50 -8 108 -19 130 -25 43 -10 285 -57 344 -66 20 -3
39 -8 42 -10 3 -2 21 -6 40 -9 19 -3 83 -17 144 -30 60 -14 116 -25 123 -25
11 0 298 190 510 337 37 26 81 56 97 67 17 12 32 24 33 29 2 4 10 7 18 7 8 0
14 4 14 8 0 5 9 13 19 18 21 10 31 -18 -316 879 -248 642 -229 597 -265 625
-17 14 -68 54 -113 90 -45 36 -99 79 -120 95 -21 17 -132 105 -247 196 -115
92 -221 169 -236 172 -59 13 -419 87 -442 91 -14 3 -50 10 -80 15 -30 6 -66
13 -80 16 -14 3 -36 7 -50 10 -14 2 -38 7 -55 10 -16 3 -41 7 -55 10 -14 3
-41 8 -60 11 -19 4 -44 8 -55 10 -89 17 -136 24 -170 29 -22 3 -51 8 -65 11
-63 12 -77 14 -115 20 -22 4 -49 8 -60 10 -11 2 -40 6 -65 9 -25 3 -52 8 -60
10 -8 3 -35 7 -60 10 -25 3 -56 8 -70 10 -14 3 -91 14 -170 25 -80 11 -158 22
-175 25 -16 2 -52 7 -80 10 -27 4 -62 8 -76 11 -15 2 -47 6 -70 9 -24 3 -60 7
-79 10 -31 4 -73 9 -260 31 -48 6 -79 10 -87 13 -1 1 11 25 29 54 33 56 198
382 198 391 0 3 13 35 30 70 147 321 315 866 365 1186 4 25 13 56 21 70 18 35
341 345 441 424 80 63 84 64 119 54 42 -11 39 -11 164 -37 147 -30 164 -32
330 -36 126 -3 176 0 270 17 63 12 138 21 165 21 28 0 105 -1 173 -2 68 -1
127 1 130 3 4 2 41 7 82 10 94 8 131 14 200 34 43 12 108 16 295 17 212 2 331
7 415 21 14 2 50 6 80 10 30 3 58 8 61 10 4 2 24 6 45 10 22 3 174 50 339 104
315 103 324 106 420 115 33 4 71 8 85 11 14 2 50 6 80 10 30 3 57 8 60 9 3 2
26 6 50 10 58 8 205 41 281 62 54 15 58 18 53 42 -5 26 -5 26 63 27 71 1 269
12 319 19 16 2 58 6 94 9 36 4 76 9 90 11 14 2 45 7 70 10 90 12 245 37 249
41 2 2 -38 53 -88 114 -50 60 -86 110 -79 111 7 0 22 2 33 4 11 2 40 7 65 10
25 4 61 9 80 11 19 3 53 10 75 16 22 5 49 12 60 14 37 7 290 87 299 94 13 12
-102 221 -146 264 -21 21 -38 39 -36 40 2 2 39 13 83 25 76 22 167 61 230 98
17 10 51 31 78 47 26 15 47 29 47 31 0 6 -85 140 -115 182 -16 23 -48 52 -70
64 -70 39 -69 36 -15 96 34 38 74 102 125 204 l74 149 -27 0 c-129 -1 -809 10
-852 13 -30 3 -95 8 -145 11 -49 4 -112 9 -140 11 -95 8 -170 15 -210 20 -22
2 -71 7 -110 10 -38 4 -82 9 -98 11 -15 2 -51 7 -80 9 -53 5 -95 10 -169 21
-24 3 -52 7 -63 9 -73 10 -220 31 -278 40 -17 2 -59 8 -92 11 -33 4 -67 8 -75
9 -8 2 -40 6 -70 10 -30 4 -66 9 -80 11 -14 3 -63 7 -109 11 l-85 6 40 34 39
33 -45 -4 c-25 -3 -74 -7 -110 -11 -36 -3 -90 -8 -120 -11 -40 -4 -51 -2 -40
5 12 9 9 11 -15 12 -16 0 -66 3 -110 4 -65 3 -641 16 -681 15 -7 0 -12 26 -13
72 -1 39 -3 73 -5 75 -2 2 -69 -38 -150 -89 -175 -110 -206 -127 -311 -169
-80 -32 -91 -33 -224 -25 -56 4 -164 -15 -278 -47 -48 -14 -149 -42 -223 -62
-74 -20 -191 -54 -259 -75 -68 -21 -131 -37 -141 -35 -9 2 -41 6 -71 9 -30 4
-72 9 -94 13 -73 12 -228 6 -273 -11 -24 -9 -80 -36 -125 -62 l-82 -46 -118
-4 c-66 -2 -147 -10 -180 -19 -55 -13 -264 -107 -277 -124 -3 -4 -30 -22 -60
-41 -110 -69 -266 -180 -306 -217 -29 -27 -27 -27 -67 -9 -439 191 -851 305
-1372 380 -16 2 -42 5 -56 5 -20 1 -31 11 -50 48 -13 26 -60 84 -104 128 -122
121 -243 173 -420 179 -204 8 -398 -43 -545 -142 -72 -49 -159 -136 -195 -195
-7 -12 -35 -19 -100 -27 -122 -14 -165 -20 -195 -25 -14 -2 -45 -7 -70 -10
-25 -2 -58 -7 -75 -10 -16 -3 -57 -10 -90 -16 -106 -18 -241 -48 -371 -83
l-127 -35 -82 77 c-110 104 -410 308 -583 396 -72 37 -121 53 -282 89 -107 24
-197 40 -198 35 -2 -5 2 -15 8 -24 7 -8 11 -17 8 -20 -11 -10 -153 37 -177 60
-14 13 -39 34 -55 47 -16 13 -34 29 -40 34 -6 6 -60 53 -121 105 -60 52 -121
105 -135 117 -14 11 -43 37 -65 56 -22 20 -41 34 -43 33 -1 -2 16 -57 38 -122
22 -65 40 -122 40 -127 0 -4 -26 6 -57 22 -138 68 -357 138 -508 162 -82 12
-244 15 -308 5 -29 -5 -57 4 -145 43 -191 85 -355 134 -562 166 -41 7 -135 23
-170 30 -91 18 -184 35 -191 35 -6 0 -6 -7 0 -17z m525 -279 c8 -21 -17 -17
-31 5 -10 16 -9 18 7 14 10 -3 21 -11 24 -19z m-3930 -147 c55 -55 126 -104
216 -150 41 -21 64 -36 50 -33 -14 4 -33 9 -43 11 -48 11 -150 51 -217 86 -71
37 -168 106 -170 121 0 8 66 14 99 9 14 -2 43 -22 65 -44z m626 -271 c0 -2
-30 -13 -67 -26 -163 -54 -352 -166 -477 -282 -49 -44 -88 -71 -136 -90 -36
-14 -90 -40 -119 -58 -30 -17 -55 -29 -57 -27 -2 2 32 41 75 88 123 132 272
230 476 312 111 44 305 98 305 83z m13510 -26 c-41 -29 -89 -48 -130 -53 l-45
-5 67 32 c65 30 142 49 108 26z m-5005 -280 c10 -11 16 -20 13 -20 -3 0 -13 9
-23 20 -10 11 -16 20 -13 20 3 0 13 -9 23 -20z m8345 -20 c-30 -55 -165 -143
-283 -184 -63 -22 -210 -56 -240 -56 -5 0 29 19 74 43 61 30 108 65 174 128
l90 86 97 0 c86 -1 96 -3 88 -17z m-16545 -10 c-3 -5 -13 -10 -21 -10 -53 0
-414 -159 -572 -252 -76 -45 -94 -52 -151 -54 -35 -2 -60 1 -55 5 16 15 215
115 314 158 152 66 319 121 488 162 2 1 0 -3 -3 -9z m11243 -5 c-2 -1 -32 -27
-68 -57 -58 -48 -126 -85 -137 -74 -9 9 172 132 195 133 6 0 11 -1 10 -2z
m-543 -150 c-11 -8 -24 -18 -30 -23 -5 -4 -17 -11 -26 -14 -14 -6 -15 -3 -6
21 8 22 17 27 46 29 34 2 35 1 16 -13z m5358 -112 c-7 -2 -19 -2 -25 0 -7 3
-2 5 12 5 14 0 19 -2 13 -5z m72 -6 c26 -4 140 -25 170 -31 152 -32 295 -87
295 -113 0 -26 -203 -94 -324 -108 -61 -7 -58 -4 23 29 36 14 75 33 88 41 l23
16 -57 50 c-42 37 -74 55 -127 71 -39 12 -73 23 -76 23 -41 8 -70 18 -70 25 0
5 6 7 13 5 6 -2 26 -6 42 -8z m-16330 -176 c-57 -33 -137 -109 -132 -125 2 -6
14 -13 28 -17 13 -4 17 -7 9 -8 -17 -1 -120 33 -146 47 -14 8 -11 13 17 34 66
50 184 96 244 97 29 1 28 -1 -20 -28z m16015 -163 c19 -5 49 -16 65 -23 17 -7
64 -27 105 -45 241 -104 375 -180 353 -201 -9 -8 -156 -44 -218 -53 l-40 -6
38 17 38 18 -58 59 c-49 50 -80 70 -198 126 -77 36 -165 77 -195 90 -30 13
-59 27 -64 31 -12 10 132 0 174 -13z m-15488 -159 c-42 -18 -92 -22 -92 -7 0
11 59 26 100 26 l35 1 -43 -20z m15099 -243 c40 -3 71 -13 106 -35 28 -17 53
-31 56 -31 12 0 172 -99 200 -123 33 -30 28 -33 -80 -42 l-79 -7 -39 43 c-58
64 -126 111 -247 171 -52 25 -56 38 -11 33 21 -3 63 -7 94 -9z m-13466 -234
c-3 -3 -11 0 -18 7 -9 10 -8 11 6 5 10 -3 15 -9 12 -12z m102 -41 c10 -6 15
-11 12 -11 -10 0 -99 40 -99 46 0 5 60 -19 87 -35z m13121 -40 c13 -7 8 -11
-23 -20 -93 -24 -164 -39 -169 -33 -3 3 -6 16 -6 28 0 25 8 27 118 31 35 2 71
-1 80 -6z m-12131 -195 c-18 -40 -67 -81 -67 -55 0 22 29 78 47 88 35 21 41
12 20 -33z m11260 13 c-44 -25 -266 -93 -275 -84 -2 2 7 6 20 10 22 7 51 19
127 53 44 19 73 26 114 29 26 2 29 0 14 -8z m-1367 -229 c-8 -5 -19 -10 -25
-10 -5 0 -3 5 5 10 8 5 20 10 25 10 6 0 3 -5 -5 -10z m-1635 -49 c-6 -5 -41
-35 -80 -66 -38 -31 -161 -145 -272 -252 -155 -152 -203 -203 -207 -227 -3
-17 -8 -47 -11 -66 -3 -19 -8 -37 -11 -40 -6 -5 -2 26 17 139 11 60 15 67 79
130 177 174 413 373 455 384 34 8 40 8 30 -2z m-6855 -66 l45 -50 -47 45 c-27
24 -48 48 -48 54 0 5 1 7 3 5 1 -2 22 -27 47 -54z m104 -167 c3 -24 8 -70 11
-103 5 -57 8 -81 19 -150 5 -29 10 -65 22 -142 53 -357 192 -831 355 -1213 48
-112 209 -429 279 -549 39 -67 69 -126 65 -129 -7 -8 -34 26 -84 108 -168 275
-345 665 -449 990 -55 171 -106 351 -116 415 -2 11 -11 49 -19 85 -9 36 -19
79 -22 95 -19 107 -37 204 -40 228 -9 60 -16 104 -20 127 -4 23 -10 95 -20
238 -4 61 10 61 19 0z m6158 -480 c-6 -6 -7 0 -4 19 5 21 7 23 10 9 2 -10 0
-22 -6 -28z m-5 -40 c-3 -8 -6 -5 -6 6 -1 11 2 17 5 13 3 -3 4 -12 1 -19z
m-24 -118 c-3 -12 -8 -19 -11 -16 -5 6 5 36 12 36 2 0 2 -9 -1 -20z m-5836
-1696 c-3 -3 -12 -4 -19 -1 -8 3 -5 6 6 6 11 1 17 -2 13 -5z m-104 -11 c-7 -2
-19 -2 -25 0 -7 3 -2 5 12 5 14 0 19 -2 13 -5z"/>
</g>
</svg>
